<svg xmlns="http://www.w3.org/2000/svg" viewBox="-2.5 -2.5 29 29" width="64" height="64" shape-rendering="crispEdges"><rect x="-2.5" y="-2.5" width="29" height="29" rx="6.38" fill="#EAF0FD"/><rect x="18" y="4" width="1.02" height="1.02" fill="#2B4FA8"/><rect x="22" y="4" width="1.02" height="1.02" fill="#2B4FA8"/><rect x="19" y="5" width="1.02" height="1.02" fill="#2B4FA8"/><rect x="21" y="5" width="1.02" height="1.02" fill="#2B4FA8"/><rect x="20" y="6" width="1.02" height="1.02" fill="#16307A"/><rect x="20" y="7" width="1.02" height="1.02" fill="#16307A"/><rect x="4" y="8" width="1.02" height="1.02" fill="#2350C8"/><rect x="5" y="8" width="1.02" height="1.02" fill="#2350C8"/><rect x="6" y="8" width="1.02" height="1.02" fill="#2350C8"/><rect x="7" y="8" width="1.02" height="1.02" fill="#2350C8"/><rect x="8" y="8" width="1.02" height="1.02" fill="#2350C8"/><rect x="9" y="8" width="1.02" height="1.02" fill="#2350C8"/><rect x="10" y="8" width="1.02" height="1.02" fill="#2350C8"/><rect x="11" y="8" width="1.02" height="1.02" fill="#2350C8"/><rect x="20" y="8" width="1.02" height="1.02" fill="#16307A"/><rect x="3" y="9" width="1.02" height="1.02" fill="#2350C8"/><rect x="4" y="9" width="1.02" height="1.02" fill="#2350C8"/><rect x="5" y="9" width="1.02" height="1.02" fill="#2350C8"/><rect x="6" y="9" width="1.02" height="1.02" fill="#2350C8"/><rect x="7" y="9" width="1.02" height="1.02" fill="#2350C8"/><rect x="8" y="9" width="1.02" height="1.02" fill="#2350C8"/><rect x="9" y="9" width="1.02" height="1.02" fill="#2350C8"/><rect x="10" y="9" width="1.02" height="1.02" fill="#2350C8"/><rect x="11" y="9" width="1.02" height="1.02" fill="#2350C8"/><rect x="12" y="9" width="1.02" height="1.02" fill="#12296B"/><rect x="20" y="9" width="1.02" height="1.02" fill="#16307A"/><rect x="2" y="10" width="1.02" height="1.02" fill="#2350C8"/><rect x="3" y="10" width="1.02" height="1.02" fill="#2350C8"/><rect x="4" y="10" width="1.02" height="1.02" fill="#2350C8"/><rect x="5" y="10" width="1.02" height="1.02" fill="#8FAEF2"/><rect x="6" y="10" width="1.02" height="1.02" fill="#8FAEF2"/><rect x="7" y="10" width="1.02" height="1.02" fill="#8FAEF2"/><rect x="8" y="10" width="1.02" height="1.02" fill="#8FAEF2"/><rect x="9" y="10" width="1.02" height="1.02" fill="#2350C8"/><rect x="10" y="10" width="1.02" height="1.02" fill="#2350C8"/><rect x="11" y="10" width="1.02" height="1.02" fill="#2350C8"/><rect x="12" y="10" width="1.02" height="1.02" fill="#12296B"/><rect x="13" y="10" width="1.02" height="1.02" fill="#2350C8"/><rect x="20" y="10" width="1.02" height="1.02" fill="#16307A"/><rect x="1" y="11" width="1.02" height="1.02" fill="#2350C8"/><rect x="2" y="11" width="1.02" height="1.02" fill="#2350C8"/><rect x="3" y="11" width="1.02" height="1.02" fill="#2350C8"/><rect x="4" y="11" width="1.02" height="1.02" fill="#8FAEF2"/><rect x="5" y="11" width="1.02" height="1.02" fill="#DCE6FD"/><rect x="6" y="11" width="1.02" height="1.02" fill="#DCE6FD"/><rect x="7" y="11" width="1.02" height="1.02" fill="#2350C8"/><rect x="8" y="11" width="1.02" height="1.02" fill="#2350C8"/><rect x="9" y="11" width="1.02" height="1.02" fill="#2350C8"/><rect x="10" y="11" width="1.02" height="1.02" fill="#2350C8"/><rect x="11" y="11" width="1.02" height="1.02" fill="#2350C8"/><rect x="12" y="11" width="1.02" height="1.02" fill="#12296B"/><rect x="13" y="11" width="1.02" height="1.02" fill="#2350C8"/><rect x="14" y="11" width="1.02" height="1.02" fill="#2350C8"/><rect x="20" y="11" width="1.02" height="1.02" fill="#16307A"/><rect x="1" y="12" width="1.02" height="1.02" fill="#2350C8"/><rect x="2" y="12" width="1.02" height="1.02" fill="#2350C8"/><rect x="3" y="12" width="1.02" height="1.02" fill="#2350C8"/><rect x="4" y="12" width="1.02" height="1.02" fill="#8FAEF2"/><rect x="5" y="12" width="1.02" height="1.02" fill="#2350C8"/><rect x="6" y="12" width="1.02" height="1.02" fill="#2350C8"/><rect x="7" y="12" width="1.02" height="1.02" fill="#2350C8"/><rect x="8" y="12" width="1.02" height="1.02" fill="#2350C8"/><rect x="9" y="12" width="1.02" height="1.02" fill="#2350C8"/><rect x="10" y="12" width="1.02" height="1.02" fill="#2350C8"/><rect x="11" y="12" width="1.02" height="1.02" fill="#2350C8"/><rect x="12" y="12" width="1.02" height="1.02" fill="#12296B"/><rect x="13" y="12" width="1.02" height="1.02" fill="#2350C8"/><rect x="14" y="12" width="1.02" height="1.02" fill="#2350C8"/><rect x="17" y="12" width="1.02" height="1.02" fill="#1A3D9E"/><rect x="18" y="12" width="1.02" height="1.02" fill="#1A3D9E"/><rect x="19" y="12" width="1.02" height="1.02" fill="#16307A"/><rect x="20" y="12" width="1.02" height="1.02" fill="#16307A"/><rect x="0" y="13" width="1.02" height="1.02" fill="#2350C8"/><rect x="1" y="13" width="1.02" height="1.02" fill="#2350C8"/><rect x="2" y="13" width="1.02" height="1.02" fill="#2350C8"/><rect x="3" y="13" width="1.02" height="1.02" fill="#2350C8"/><rect x="4" y="13" width="1.02" height="1.02" fill="#2350C8"/><rect x="5" y="13" width="1.02" height="1.02" fill="#2350C8"/><rect x="6" y="13" width="1.02" height="1.02" fill="#2350C8"/><rect x="7" y="13" width="1.02" height="1.02" fill="#2350C8"/><rect x="8" y="13" width="1.02" height="1.02" fill="#2350C8"/><rect x="9" y="13" width="1.02" height="1.02" fill="#2350C8"/><rect x="10" y="13" width="1.02" height="1.02" fill="#2350C8"/><rect x="11" y="13" width="1.02" height="1.02" fill="#2350C8"/><rect x="12" y="13" width="1.02" height="1.02" fill="#12296B"/><rect x="13" y="13" width="1.02" height="1.02" fill="#2350C8"/><rect x="14" y="13" width="1.02" height="1.02" fill="#2350C8"/><rect x="15" y="13" width="1.02" height="1.02" fill="#1A3D9E"/><rect x="16" y="13" width="1.02" height="1.02" fill="#1A3D9E"/><rect x="17" y="13" width="1.02" height="1.02" fill="#1A3D9E"/><rect x="18" y="13" width="1.02" height="1.02" fill="#1A3D9E"/><rect x="19" y="13" width="1.02" height="1.02" fill="#1A3D9E"/><rect x="0" y="14" width="1.02" height="1.02" fill="#2350C8"/><rect x="1" y="14" width="1.02" height="1.02" fill="#2350C8"/><rect x="2" y="14" width="1.02" height="1.02" fill="#2350C8"/><rect x="3" y="14" width="1.02" height="1.02" fill="#2350C8"/><rect x="4" y="14" width="1.02" height="1.02" fill="#2350C8"/><rect x="5" y="14" width="1.02" height="1.02" fill="#2350C8"/><rect x="6" y="14" width="1.02" height="1.02" fill="#2350C8"/><rect x="7" y="14" width="1.02" height="1.02" fill="#2350C8"/><rect x="8" y="14" width="1.02" height="1.02" fill="#2350C8"/><rect x="9" y="14" width="1.02" height="1.02" fill="#2350C8"/><rect x="10" y="14" width="1.02" height="1.02" fill="#2350C8"/><rect x="11" y="14" width="1.02" height="1.02" fill="#2350C8"/><rect x="12" y="14" width="1.02" height="1.02" fill="#12296B"/><rect x="13" y="14" width="1.02" height="1.02" fill="#2350C8"/><rect x="14" y="14" width="1.02" height="1.02" fill="#2350C8"/><rect x="15" y="14" width="1.02" height="1.02" fill="#1A3D9E"/><rect x="16" y="14" width="1.02" height="1.02" fill="#1A3D9E"/><rect x="17" y="14" width="1.02" height="1.02" fill="#1A3D9E"/><rect x="18" y="14" width="1.02" height="1.02" fill="#FFFFFF"/><rect x="19" y="14" width="1.02" height="1.02" fill="#FFFFFF"/><rect x="0" y="15" width="1.02" height="1.02" fill="#2350C8"/><rect x="1" y="15" width="1.02" height="1.02" fill="#2350C8"/><rect x="2" y="15" width="1.02" height="1.02" fill="#2350C8"/><rect x="3" y="15" width="1.02" height="1.02" fill="#2350C8"/><rect x="4" y="15" width="1.02" height="1.02" fill="#2350C8"/><rect x="5" y="15" width="1.02" height="1.02" fill="#2350C8"/><rect x="6" y="15" width="1.02" height="1.02" fill="#2350C8"/><rect x="7" y="15" width="1.02" height="1.02" fill="#2350C8"/><rect x="8" y="15" width="1.02" height="1.02" fill="#2350C8"/><rect x="9" y="15" width="1.02" height="1.02" fill="#2350C8"/><rect x="10" y="15" width="1.02" height="1.02" fill="#2350C8"/><rect x="11" y="15" width="1.02" height="1.02" fill="#2350C8"/><rect x="12" y="15" width="1.02" height="1.02" fill="#12296B"/><rect x="13" y="15" width="1.02" height="1.02" fill="#2350C8"/><rect x="14" y="15" width="1.02" height="1.02" fill="#2350C8"/><rect x="15" y="15" width="1.02" height="1.02" fill="#1A3D9E"/><rect x="16" y="15" width="1.02" height="1.02" fill="#1A3D9E"/><rect x="17" y="15" width="1.02" height="1.02" fill="#1A3D9E"/><rect x="18" y="15" width="1.02" height="1.02" fill="#FFFFFF"/><rect x="19" y="15" width="1.02" height="1.02" fill="#0B1636"/><rect x="1" y="16" width="1.02" height="1.02" fill="#2350C8"/><rect x="2" y="16" width="1.02" height="1.02" fill="#2350C8"/><rect x="3" y="16" width="1.02" height="1.02" fill="#2350C8"/><rect x="4" y="16" width="1.02" height="1.02" fill="#2350C8"/><rect x="5" y="16" width="1.02" height="1.02" fill="#2350C8"/><rect x="6" y="16" width="1.02" height="1.02" fill="#2350C8"/><rect x="7" y="16" width="1.02" height="1.02" fill="#2350C8"/><rect x="8" y="16" width="1.02" height="1.02" fill="#2350C8"/><rect x="9" y="16" width="1.02" height="1.02" fill="#2350C8"/><rect x="10" y="16" width="1.02" height="1.02" fill="#2350C8"/><rect x="11" y="16" width="1.02" height="1.02" fill="#2350C8"/><rect x="12" y="16" width="1.02" height="1.02" fill="#12296B"/><rect x="13" y="16" width="1.02" height="1.02" fill="#2350C8"/><rect x="14" y="16" width="1.02" height="1.02" fill="#2350C8"/><rect x="15" y="16" width="1.02" height="1.02" fill="#1A3D9E"/><rect x="16" y="16" width="1.02" height="1.02" fill="#1A3D9E"/><rect x="17" y="16" width="1.02" height="1.02" fill="#1A3D9E"/><rect x="18" y="16" width="1.02" height="1.02" fill="#1A3D9E"/><rect x="19" y="16" width="1.02" height="1.02" fill="#1A3D9E"/><rect x="1" y="17" width="1.02" height="1.02" fill="#1A3D9E"/><rect x="2" y="17" width="1.02" height="1.02" fill="#1A3D9E"/><rect x="3" y="17" width="1.02" height="1.02" fill="#1A3D9E"/><rect x="4" y="17" width="1.02" height="1.02" fill="#1A3D9E"/><rect x="5" y="17" width="1.02" height="1.02" fill="#1A3D9E"/><rect x="6" y="17" width="1.02" height="1.02" fill="#1A3D9E"/><rect x="7" y="17" width="1.02" height="1.02" fill="#1A3D9E"/><rect x="8" y="17" width="1.02" height="1.02" fill="#1A3D9E"/><rect x="9" y="17" width="1.02" height="1.02" fill="#1A3D9E"/><rect x="10" y="17" width="1.02" height="1.02" fill="#1A3D9E"/><rect x="11" y="17" width="1.02" height="1.02" fill="#1A3D9E"/><rect x="12" y="17" width="1.02" height="1.02" fill="#1A3D9E"/><rect x="13" y="17" width="1.02" height="1.02" fill="#1A3D9E"/><rect x="14" y="17" width="1.02" height="1.02" fill="#1A3D9E"/><rect x="17" y="17" width="1.02" height="1.02" fill="#1A3D9E"/><rect x="18" y="17" width="1.02" height="1.02" fill="#1A3D9E"/><rect x="3" y="18" width="1.02" height="1.02" fill="#0F2257"/><rect x="8" y="18" width="1.02" height="1.02" fill="#0F2257"/><rect x="13" y="18" width="1.02" height="1.02" fill="#0F2257"/><rect x="2" y="19" width="1.02" height="1.02" fill="#0F2257"/><rect x="8" y="19" width="1.02" height="1.02" fill="#0F2257"/><rect x="14" y="19" width="1.02" height="1.02" fill="#0F2257"/></svg>
